<svg width="15" height="8" viewBox="0 0 15 8" fill="none" xmlns="http://www.w3.org/2000/svg">
<path d="M14.5416 6.51414C14.542 6.74779 14.4606 6.97423 14.3116 7.15414C14.2276 7.2554 14.1245 7.3391 14.0082 7.40045C13.8918 7.4618 13.7645 7.4996 13.6335 7.51168C13.5026 7.52375 13.3705 7.50987 13.2449 7.47083C13.1193 7.43178 13.0026 7.36834 12.9016 7.28414L7.54157 2.80414L2.17157 7.12414C2.06928 7.20721 1.95158 7.26924 1.82524 7.30667C1.6989 7.3441 1.56641 7.35619 1.43538 7.34226C1.30436 7.32832 1.17737 7.28862 1.06174 7.22545C0.946101 7.16227 0.844089 7.07687 0.761566 6.97414C0.67053 6.87067 0.601862 6.74951 0.559873 6.61825C0.517884 6.48698 0.503481 6.34846 0.517565 6.21137C0.53165 6.07427 0.57392 5.94157 0.641722 5.82159C0.709524 5.70161 0.801394 5.59693 0.911566 5.51414L6.91157 0.684139C7.0905 0.537058 7.31494 0.456652 7.54657 0.456652C7.77819 0.456652 8.00263 0.537058 8.18157 0.684139L14.1816 5.68414C14.3026 5.78446 14.3982 5.91189 14.4608 6.0561C14.5233 6.20031 14.551 6.35723 14.5416 6.51414Z" fill="white"/>
</svg>
